<svg xmlns="http://www.w3.org/2000/svg" viewBox="0 0 68 68"><g id="Layer_2" data-name="Layer 2"><g id="Layer_1-2" data-name="Layer 1"><g id="Group_2482" data-name="Group 2482"><circle id="Ellipse_369" data-name="Ellipse 369" cx="34" cy="34" r="34" fill="#fff"/><g id="Layer_2-2" data-name="Layer 2"><g id="Layer_1-3" data-name="Layer 1"><path id="Path_2366" data-name="Path 2366" d="M44,9.21a3.86,3.86,0,0,0-.68,1.22c-.92,2.17-1.42,2.7-3.59,3.85-1.12.59-1.39.83-1.39,1.2s.12.55.54.71a9.27,9.27,0,0,0,3.4-.14,13.89,13.89,0,0,1,2.32-.2,6,6,0,0,1,3.3.75A2.57,2.57,0,0,0,49,17c.34,0,.42,0,.79-.43a15,15,0,0,0,1.93-3.1c1-1.89,1.7-2.66,2.38-2.75a.53.53,0,0,1,.58.21c.24.24.25.27.25,1a15.53,15.53,0,0,1-.71,3.87c-.59,2.31-.67,4.11-.24,5.15A8,8,0,0,0,55,22.19,13.83,13.83,0,0,1,57.94,26c.53,1.1.46,2.09-.17,2.54a2.62,2.62,0,0,1-2.09-.06,13.81,13.81,0,0,1-3.87-2.72c-1.36-1.24-1.45-1.27-3-1.27a17.92,17.92,0,0,0-3.11.31,21.7,21.7,0,0,1-4.48.46c-1.08-.05-1.47-.2-1.55-.61a1.11,1.11,0,0,1,.57-1,7.49,7.49,0,0,1,2.31-1c2.09-.69,3.39-1.49,3.69-2.28.16-.44.1-.69-.38-1.53a7.56,7.56,0,0,1-.45-.9c-.1-.24-.19-.35-.3-.35-.28,0-.19.38.33,1.37s.57,1.23,0,1.78a9.55,9.55,0,0,1-3.22,1.57,6.31,6.31,0,0,0-2.44,1.15c-.79.72-.76,1.66.08,2,.36.16.52.18,1.84.17a21.62,21.62,0,0,0,4.61-.49c2.3-.36,3.57-.36,4.19,0a10.92,10.92,0,0,1,.89.77c2.78,2.61,5,3.68,6.38,3.07s1.27-2.61-.44-4.86c-.31-.42-1.1-1.3-1.74-2-1.47-1.51-1.47-1.53-1.42-3.46a10.87,10.87,0,0,1,.5-3.16c.59-2.34.78-3.48.66-4.15s-.3-.9-.66-1.05c-1.1-.46-2,.4-3.59,3.29-1.11,2.06-1.73,2.9-2.13,2.9a3.13,3.13,0,0,1-.83-.33c-1.85-.91-3.15-1-6.34-.54-2.05.31-3.07.24-3.07-.2,0-.16.28-.34,1.37-.93a6.24,6.24,0,0,0,3.56-3.87c.53-1.29.74-1.49,1.11-1.09s.37.73.41,1.9a7.5,7.5,0,0,1-.09,1.89c-.07.41-.13.82-.13.89s.29.17.37,0a11.47,11.47,0,0,0,.2-4C45.27,9.17,44.57,8.69,44,9.21Z"/><path id="Path_2367" data-name="Path 2367" d="M33.1,24.83c-.12.27-.29.65-.37.86s-.34.78-.56,1.28l-.4.91-.53.09-.54.08-.14.75c-.28,1.44-.15,1.27-1.17,1.62-.49.16-.92.33-.95.35a5,5,0,0,0-.22.87l-.18.8H27.3l-.45,1.39c-.37,1.13-.49,1.39-.65,1.47s-.33.11-.45-.23c-.19-.59-.21-.61-.49-.47a1.57,1.57,0,0,1-.3.12,1.16,1.16,0,0,1-.25-.41c-.22-.47-.23-.48-1.1-.25-.45.12-.65.13-.72.07s-.68-.87-1.36-1.8-1.33-1.8-1.42-1.91-.14-.32-.83,1l-.51.93-.4,0-.41,0-.6,1.07c-.59,1-.61,1.07-1,1.25a6.31,6.31,0,0,0-1.84,1.23l-.44.43h-.75c-1.11,0-1.08,0-1.23,1.45a2.73,2.73,0,0,1-.21,1,2.68,2.68,0,0,1-.62.35,1.92,1.92,0,0,0-.55.33,3.51,3.51,0,0,0-.19.63l-.12.54-.61.22a2.2,2.2,0,0,0-.69.33c-.09.15-.1,1.46,0,1.35A2.86,2.86,0,0,0,9.29,42a1,1,0,0,1,.25-.44,3.18,3.18,0,0,1,.83.3,3.42,3.42,0,0,0,.77.3,4.41,4.41,0,0,0-.09-.73,2.4,2.4,0,0,1,0-1.1,2.46,2.46,0,0,1,.11-.45A25.16,25.16,0,0,1,13,41.58c.16.23.09-.1-.24-1.16s-.37-1.2-.28-1.5.11-.69.14-1a7.89,7.89,0,0,1,.1-.85c0-.12.26.16.88,1.14.26.44.54.86.84,1.27,0,0,.28-2.74.28-3a4.77,4.77,0,0,1,1.58-1.13l.75-.38a4.58,4.58,0,0,0,.59-.91c.17-.33.36-.64.56-1,.14-.14.19,0,.47,1,.24.83.25.84.3.51a5,5,0,0,0,.06-1,1.4,1.4,0,0,1,.19-.87c.09-.14.26-.44.38-.67s.23-.37.25-.31a5.7,5.7,0,0,1-.09.83l-.13.73.21.3.2.3-.33.7a4,4,0,0,0-.34.87,13.08,13.08,0,0,0,.38,1.36c.2.66.37,1.24.37,1.3,0,.3.19.09.58-.65l.43-.84-.1-.84c-.05-.46-.1-1-.13-1.09s0-.32.32-.65a1.84,1.84,0,0,1,.44-.39,2.93,2.93,0,0,1,.52.59l.44.58-.34.59A3.26,3.26,0,0,0,22,36a8.88,8.88,0,0,0,1.14-.6,12.34,12.34,0,0,1,1.16-.62,1,1,0,0,1,.21.33c.16.35.2.38.45.25s.26.05.24,1.22a7.6,7.6,0,0,0,0,1.07,3.49,3.49,0,0,0,.55-.77,8.13,8.13,0,0,1,.83-1.1c.26-.24.37-.46.67-1.37.19-.6.37-1.1.4-1.14a19.55,19.55,0,0,1,.58,2.12c.29,1.2.55,2.25.59,2.34a10.85,10.85,0,0,0,2.08,1.47s-.2-.53-.45-1.1a10.63,10.63,0,0,1-.42-1,2.82,2.82,0,0,1,.64.14l.67.17c.06,0-.13-.31-1.1-1.84-.17-.26-.45-.71-.62-1s-.5-.78-.7-1.09l-.37-.56.09-.52c.06-.28.12-.61.15-.75s.08-.22.13-.22a6.43,6.43,0,0,1,1,.54,8.48,8.48,0,0,0,.93.52s.06-.78.11-1.71c.14-2.3.1-2.16.69-2.22l.48-.05.54-1.25c.3-.68.54-1.27.54-1.31a.09.09,0,0,1,.09-.08,9.57,9.57,0,0,1,.08,1.93v1.9l.61.71c.91,1.09.84,1,.68,1.22s-.13.26,0,.63.21.51.83,1.1l.73.69,1.52,0,1.52,0,.46.31,1.16.8.7.49.09.48.08.47.58,0,.58,0,0,2.07a9.47,9.47,0,0,0,.06,2C43,40.56,44,39.14,44.15,39a13.4,13.4,0,0,1,1.9-1.53,4,4,0,0,1,1-.33,8.32,8.32,0,0,0,.9-.21l.28-.09,0-.73,0-.71.48-.81a8.67,8.67,0,0,1,.53-.81A12.34,12.34,0,0,1,49,36l-.12,1.15.68,1a9.45,9.45,0,0,0,.73.94,13.29,13.29,0,0,0,.59-1.34c.49-1.25.55-1.35.8-1.46a.65.65,0,0,1,.34-.08,4.62,4.62,0,0,1-.1,1c-.15,1-.18,1.72-.06,1.72a.14.14,0,0,0,.11-.07s.3-.3.63-.61l.6-.55L54,38a7.83,7.83,0,0,1,.92.45s-.06.24-.27.49-.33.44-.31.49a7.5,7.5,0,0,0,.88.48l.84.4.28.6c.3.65.27.64,1.25.74s1,.1,1.24.56l.18.42.06-.7a4.1,4.1,0,0,0,0-.7,8,8,0,0,0-.9-.13l-1-.12c-.13,0-.34-.39-.86-1.49l-.69-1.45-.55-.23c-1.51-.65-1.67-.76-2.21-1.56a2.83,2.83,0,0,0-.65-.77,1.39,1.39,0,0,0-.53.1,1,1,0,0,1-.44.07A5,5,0,0,1,51,35c-.18-.75-.43-1.28-.57-1.2l-.24.19c-.07.05-.17.09-.22.06a5.21,5.21,0,0,1-.35-.88,4.48,4.48,0,0,0-.33-.83,4.35,4.35,0,0,0-.38.57l-.9,1.44-.55.89,0,.57.06.57-.57.1a4.68,4.68,0,0,0-2.14,1,2.05,2.05,0,0,1-.64.4,9.4,9.4,0,0,1-.43-1L43.45,36l-.6,0-.62,0,0-.29a.94.94,0,0,0-.13-.41,15,15,0,0,0-1.22-.89l-1.12-.78-.41-1.2c-.22-.66-.42-1.2-.42-1.2l-.58.17c-.54.17-.56.17-.71,0S37,30.6,36.3,29.84a6.91,6.91,0,0,1-1.92-3.23,7.51,7.51,0,0,0-1-2.17C33.34,24.35,33.27,24.45,33.1,24.83Zm5.75,7.91a4.63,4.63,0,0,1,.25.8,5,5,0,0,1-1.44-1c-.12-.23-.11-.25.07-.32A2.27,2.27,0,0,1,38.5,32,3.12,3.12,0,0,1,38.85,32.74Z" fill="#3f3f3f"/><path id="Path_2368" data-name="Path 2368" d="M32.35,31.45c0,.14.12.93.22,1.76a5.59,5.59,0,0,0,.28,1.52,3.76,3.76,0,0,0,1.08-.38l-.46-.07-.38-.05-.27-1.14C32.52,31.84,32.3,31.05,32.35,31.45Z" fill="#3f3f3f"/><path id="Path_2369" data-name="Path 2369" d="M34.63,36.37,33.4,37.65a4.28,4.28,0,0,0-.56.65s.59-.39,1.24-.87a10.36,10.36,0,0,1,1.28-.88A4.42,4.42,0,0,1,35.88,38c0,.06.2.19.43.3l.42.2,0,.88-.06.87,1.25,1.1c.69.61,1.28,1.1,1.31,1.1a6.85,6.85,0,0,0,.27-1.68c0-.25-.11-.45-.66-1.18a8,8,0,0,1-.67-1,4.88,4.88,0,0,1,.29-.66,4.17,4.17,0,0,0,.29-.65s-.15-.12-.34-.18-.94-.4-1.66-.76-1.35-.64-1.39-.64A4.57,4.57,0,0,0,34.63,36.37Z" fill="#3f3f3f"/><path id="Path_2370" data-name="Path 2370" d="M16.64,37.35c0,.27,0,.8,0,1.17l.06.66.92.31.92.3-.36-.31a2.62,2.62,0,0,1-.5-.6c-.12-.22-.21-.3-.42-.31s-.26-.08-.3-.21-.11-.48-.2-.85l-.16-.66Z" fill="#3f3f3f"/><path id="Path_2371" data-name="Path 2371" d="M21.28,38.94l-.86,1.26a8.39,8.39,0,0,0,.93-.86,7.2,7.2,0,0,1,1-.94s.27.89.55,1.9.53,1.93.57,2,.08-.18.08-.82a5.26,5.26,0,0,1,0-1,1.39,1.39,0,0,1,.27.21,1.39,1.39,0,0,0,.27.21,5.91,5.91,0,0,0,.58-1.22,24.2,24.2,0,0,0-2.6-1.92A5.35,5.35,0,0,0,21.28,38.94Z" fill="#3f3f3f"/><path id="Path_2372" data-name="Path 2372" d="M46.78,39.77c-.19.31-.44.69-.54.85s-.16.28,0,.17.37-.32.62-.56c.5-.48.58-.51.71-.3.55.78,1.13,1.53,1.74,2.24a8.08,8.08,0,0,0,.37-1.3,1.92,1.92,0,0,0-.56-.36,8.57,8.57,0,0,1-1.2-.79,4.25,4.25,0,0,0-.7-.5A2.23,2.23,0,0,0,46.78,39.77Z" fill="#3f3f3f"/><path id="Path_2373" data-name="Path 2373" d="M31.16,56.8v.57l-.35-.12a1.47,1.47,0,0,0-1.09.07,1.21,1.21,0,0,0-.47,1.1,1.11,1.11,0,0,0,.42,1.06,1.42,1.42,0,0,0,1.27,0c.19-.11.22-.11.22,0s0,.13.08.13a7.43,7.43,0,0,0,.08-1.7,7.43,7.43,0,0,0-.08-1.7S31.16,56.47,31.16,56.8Zm-.25.63.25.13v.82c0,.78,0,.83-.2,1a1.08,1.08,0,0,1-1.42-.18,1.8,1.8,0,0,1,.05-1.47,1,1,0,0,1,1.32-.26Z"/><path id="Path_2374" data-name="Path 2374" d="M43.09,57.71c0,.81,0,1.59,0,1.72s.06.18.07.09,0-.14.27,0a1.78,1.78,0,0,0,1.14.08c.31-.1.52-.51.56-1.06a1.13,1.13,0,0,0-.58-1.26c-.31-.14-.52-.14-1.22,0-.1,0-.11-.06-.09-.48a1.07,1.07,0,0,0-.06-.56C43.14,56.24,43.11,56.7,43.09,57.71Zm1.41-.31c.36.12.54.55.5,1.17a.91.91,0,0,1-.25.7,1,1,0,0,1-1.2.12l-.27-.18v-.83c0-.81,0-.83.23-.94a1.22,1.22,0,0,1,1,0Z"/><path id="Path_2375" data-name="Path 2375" d="M21.63,56.37a1,1,0,0,0-.6.77c0,.41.34.71,1,.86.94.25,1.21.54,1,1.08-.16.38-.55.51-1.33.44-.38,0-.54,0-.46,0a3.55,3.55,0,0,0,1.21.1,1.11,1.11,0,0,0,.52-.23.61.61,0,0,0,.26-.58.64.64,0,0,0-.23-.59,1.14,1.14,0,0,0-.43-.24,3.88,3.88,0,0,1-1.19-.44.69.69,0,0,1,0-.85c.15-.18.23-.2.91-.2a3.21,3.21,0,0,0,.76-.05C23,56.34,22.11,56.28,21.63,56.37Z"/><path id="Path_2376" data-name="Path 2376" d="M32.48,56.44c0,.06.05.12.09.12s.08-.06.08-.12,0-.13-.08-.13S32.48,56.37,32.48,56.44Z"/><path id="Path_2377" data-name="Path 2377" d="M46.23,56.36c-.06.07,0,.2.12.2s.07-.06.07-.12S46.32,56.27,46.23,56.36Z"/><path id="Path_2378" data-name="Path 2378" d="M36.18,57.5c-.22.6-.49,1.33-.6,1.61s-.16.52-.12.52a1.16,1.16,0,0,0,.27-.5l.19-.5.82,0,.83,0,.16.45c.19.52.21.54.28.47a6.47,6.47,0,0,0-.39-1.2c-.24-.63-.5-1.34-.6-1.58C36.77,56.13,36.66,56.22,36.18,57.5Zm.94,0a6,6,0,0,1,.31.93,3.67,3.67,0,0,1-.74,0l-.71,0,.33-.83c.17-.46.34-.88.36-1S36.75,56.5,37.12,57.51Z"/><path id="Path_2379" data-name="Path 2379" d="M24.43,57.2c-.44.08-.3.16.29.16s.83.06.91.59l.05.35h-.57c-.93,0-1.26.19-1.26.73,0,.34.16.52.54.6a1.51,1.51,0,0,0,1.06-.16c.14-.13.21-.11.25.05a3.26,3.26,0,0,0,.05-.88,2.77,2.77,0,0,0-.11-1.18C25.44,57.19,25,57.1,24.43,57.2Zm1.23,1.46c.09.48-.34.89-.94.89S24,59.37,24,59s.23-.55,1-.52c.52,0,.62,0,.64.17Z"/><path id="Path_2380" data-name="Path 2380" d="M39.34,57.35l-.4.19-.07-.18c0-.11-.08.27-.08,1,0,1.49.14,1.7.17.25l0-1,.45-.21c.24-.13.4-.25.36-.27A1,1,0,0,0,39.34,57.35Z"/><path id="Path_2381" data-name="Path 2381" d="M41,57.2c-.44.08-.31.16.3.16s.86.09.86.62v.31l-.7,0c-.57,0-.73.07-.86.2a.7.7,0,0,0,0,1l0,0a1.73,1.73,0,0,0,1.32,0c.25-.16.27-.16.31,0a3.18,3.18,0,0,0,.05-.87c0-.94,0-1-.17-1.23A1.39,1.39,0,0,0,41,57.2Zm1.16,1.64c0,.43-.17.6-.69.68s-1-.21-.93-.66c.08-.28.32-.38,1-.38h.6Z"/><path id="Path_2382" data-name="Path 2382" d="M47.71,57.2c-.48.06-.43.2,0,.14.83-.1,1.15.11,1.16.73,0,.23,0,.23-.58.23s-1,.11-1.16.38a.59.59,0,0,0,.1.75c.17.19.26.22.66.22a1.26,1.26,0,0,0,.69-.14c.2-.14.22-.14.34,0s.1,0,.11-.78c0-1.1-.06-1.32-.45-1.48A1.39,1.39,0,0,0,47.71,57.2Zm1.2,1.62c0,.4-.22.62-.7.7-.76.13-1.25-.43-.79-.89.14-.14.27-.16.83-.16h.66Z"/><path id="Path_2383" data-name="Path 2383" d="M26.51,58.13c0,.8,0,.93.19,1.17a1.07,1.07,0,0,0,1.44.2c.24-.15.26-.15.3,0a4.89,4.89,0,0,0,0-1.08c0-.81,0-1.22-.07-1.18a2.79,2.79,0,0,0-.08,1c0,.91,0,.95-.2,1.08-.49.31-1.19.22-1.37-.18a3.84,3.84,0,0,1-.09-1.07,2.14,2.14,0,0,0-.09-.87A2.28,2.28,0,0,0,26.51,58.13Z"/><path id="Path_2384" data-name="Path 2384" d="M32.15,57.3c0,.05.09.09.21.09h.21l0,1.08a6,6,0,0,0,0,1.12,5,5,0,0,0,.07-1.16V57.22H32.4C32.27,57.22,32.15,57.26,32.15,57.3Z"/><path id="Path_2385" data-name="Path 2385" d="M45.89,57.3a.27.27,0,0,0,.21.09c.15,0,.16.06.16,1.12a3.27,3.27,0,0,0,.08,1.12,4.06,4.06,0,0,0,.09-1.2V57.22h-.3C46,57.22,45.85,57.26,45.89,57.3Z"/><path id="Path_2386" data-name="Path 2386" d="M41.09,46.62a.94.94,0,0,0-.44-.94,1.58,1.58,0,0,0-1.18-.2c-.62.14-1.2.7-1.2,1.14,0,.27.12.23.32-.1a1.22,1.22,0,0,1,1.11-.62c.81,0,1,.68.56,1.63A13.09,13.09,0,0,1,38.17,50c-.86.87-1,1.11-.81,1.23a14.48,14.48,0,0,0,1.74.08c1.74,0,1.74,0,1.74-.37a.28.28,0,0,0-.18-.2,9.17,9.17,0,0,0-2,0,2.74,2.74,0,0,1-.64,0,1.27,1.27,0,0,1,.31-.42C40.52,48.11,41.09,47.31,41.09,46.62Z" fill="#7bd9d8"/><path id="Path_2387" data-name="Path 2387" d="M45.38,45.69c-.22-.25-.47-.3-1-.2a2.91,2.91,0,0,0-1.93,1.75A4.58,4.58,0,0,0,42,49.52a2.35,2.35,0,0,0,.19,1.17,1.2,1.2,0,0,0,1,.75c.84.11,1.82-.75,2.33-2S45.91,46.28,45.38,45.69Zm-.27,3.1c-.33,1.57-1.2,2.52-2,2.18-.4-.16-.53-.56-.52-1.55A4.18,4.18,0,0,1,44,45.89c.51-.31.94-.13,1.11.49a7,7,0,0,1,0,2.41Z" fill="#7bd9d8"/><path id="Path_2388" data-name="Path 2388" d="M33.76,47.42a1.33,1.33,0,0,0-1.38.85c-.1.25-.71.35-1.15.19A.64.64,0,0,1,30.8,48a2.13,2.13,0,0,0-.18-.41c-.13-.11-.68.08-1,.34l-.32.3.09-.34c.07-.28.07-.35,0-.41a.37.37,0,0,0-.21-.06,6.13,6.13,0,0,0-.5,1.73,1.65,1.65,0,0,1-.55,1.1,2.3,2.3,0,0,1-1.25.8c-.27,0-.4-.24-.4-.73a3,3,0,0,1,.08-.73c.6-1.88.62-1.94.45-2.06s-.18-.09-.22-.05a4.71,4.71,0,0,0-.27.8c-.37,1.42-.79,2.21-1.31,2.53-.34.2-.36.2-.61-.05s-.24-.18.2-2c.27-1.06.29-1.24.19-1.3s-.24-.1-.43.53-.35.84-1,.84-1.11-.44-1.2-1.27c0-.26-.08-.48-.13-.49s-.25.07-.31.24-.15.15-.4.15a1.64,1.64,0,0,0-.62.13c-.5.23-.61.45-.91,1.65s-.3,1.52.26,1.9a1.19,1.19,0,0,0,1.26.06c.5-.26.64-.48.84-1.4.17-.7.23-.84.33-.8a1.88,1.88,0,0,0,1.17.15.81.81,0,0,1,.41,0s0,.27-.12.55c-.19.8-.17,1.1.12,1.36.45.42.88.36,1.4-.2.34-.35.43-.37.43-.09a.71.71,0,0,0,.7.63,2.28,2.28,0,0,0,1.28-.6c.14-.15.27-.25.3-.23a.82.82,0,0,1,0,.35c-.06.28,0,.32.11.39s.23.08.5-1.16a3.17,3.17,0,0,1,1-2c.36-.22.41-.21.56.1a1.24,1.24,0,0,0,.34.42,1.7,1.7,0,0,0,1.25.15c.23-.08.29-.08.37,0s.32.36.57.61c.4.42.45.51.45.81a.92.92,0,0,1-1,.81.94.94,0,0,1-.69-.46c-.12-.19-.18-.23-.25-.15s-.11.45.15.67a1.5,1.5,0,0,0,2.07-.38A1.56,1.56,0,0,0,34,50.1c0-.26-.08-.39-.58-.92s-.65-.73-.49-1.07a.67.67,0,0,1,.92-.24A.61.61,0,0,1,34,48c.12.17.29.07.29-.18S34.13,47.49,33.76,47.42ZM22.11,49.1c-.27,1.16-.42,1.57-.68,1.72a.87.87,0,0,1-1.05-.06c-.25-.25-.25-.3,0-1.45s.3-1.17.62-1.36a1.19,1.19,0,0,1,.52-.14c.29,0,.32,0,.51.41a1,1,0,0,1,.08.89Z" fill="#7bd9d8"/><path id="Path_2389" data-name="Path 2389" d="M17.76,45.52a.88.88,0,0,0-.39.6L17,47.89c-.6,2.52-1.09,3.2-2.38,3.3a2,2,0,0,1-1.41-.36,1,1,0,0,0-.34-.18.72.72,0,0,0,.06.29c.11.31.38.42,1.28.49a2.32,2.32,0,0,0,2-.64c.61-.58.87-1.18,1.32-3,.21-.86.46-1.74.55-2s.17-.44.17-.46S18,45.33,17.76,45.52Z" fill="#7bd9d8"/><path id="Path_2390" data-name="Path 2390" d="M21,44.9c.29-.3.24-.38-.14-.19a3.37,3.37,0,0,1-2.06,0c-2.3-.44-3.76-.24-4.64.6a1.63,1.63,0,0,0-.51,1.25A2.34,2.34,0,0,0,14.18,48c.34.44.56.55.9.49l.28,0L15,48.18a2,2,0,0,1-.91-1.65,1.29,1.29,0,0,1,.24-.81c.5-.79,1.44-1,3.37-.65C19.89,45.42,20.5,45.39,21,44.9Z" fill="#7bd9d8"/><path id="Path_2391" data-name="Path 2391" d="M54.11,45.61a.94.94,0,0,0-.35-.2,3.12,3.12,0,0,0-2.71,2.48,4.91,4.91,0,0,0,0,2.74,1.19,1.19,0,0,0,1.5.78,1,1,0,0,0,.32-.15,2.93,2.93,0,0,0,1.32-1.5,4.48,4.48,0,0,0,.49-2.33C54.64,46.46,54.5,45.93,54.11,45.61Zm0,2.2c-.11,1.59-.6,2.71-1.36,3.1a.81.81,0,0,1-.86,0c-.33-.18-.46-.6-.45-1.54a5,5,0,0,1,.49-2.28,2.47,2.47,0,0,1,1-1.23C53.76,45.43,54.2,46.15,54.1,47.81Z" fill="#7bd9d8"/><path id="Path_2392" data-name="Path 2392" d="M49.09,45.65c-.6-.3-1.7-.12-1.93.32-.13.24,0,.27.33.1a1.74,1.74,0,0,1,.81-.17.91.91,0,0,1,.76.22c.26.21.26.25.23.7,0,.69-.36,1-1.27,1.2-.31.08-.41.14-.41.25s.1.19.5.27a1.15,1.15,0,0,1,1,.94c.2,1.07-.66,1.77-1.82,1.49a1.36,1.36,0,0,1-.6-.3c-.21-.23-.4-.14-.4.18,0,.15.1.25.35.41a2.45,2.45,0,0,0,2,0,1.59,1.59,0,0,0,.86-2.1,1.65,1.65,0,0,0-.72-.8l-.25-.11.34-.16a1.37,1.37,0,0,0,.78-1.77,1.71,1.71,0,0,0-.14-.27A1.61,1.61,0,0,0,49.09,45.65Z" fill="#7bd9d8"/><path id="Path_2393" data-name="Path 2393" d="M21.87,44.32l.05-.37-.25.41c-.24.37-.44.5-.27.16a1.75,1.75,0,0,0,.15-.78,1.57,1.57,0,0,0-.3.38,1,1,0,0,1-.71.5c-.45.13-.52.13-1.8-.09-2.85-.48-4.54-.05-5.13,1.3a2.36,2.36,0,0,0,.85,2.65,3.19,3.19,0,0,0,.6.5,1.39,1.39,0,0,0,.78-.12c.13-.13,0-.31-.6-.75a1.57,1.57,0,0,1-.5-1.84,2,2,0,0,1,2.16-.9l.61.06-.13.25c-.06.15-.28,1-.49,1.81a7.68,7.68,0,0,1-1,2.82,2,2,0,0,1-2.69.31c-.39-.33-.58-.27-.52.18a1.31,1.31,0,0,0,1,1,4.52,4.52,0,0,0,2.1,0,2.64,2.64,0,0,0,.8-.5c.64-.56.95-1.26,1.37-3a9.55,9.55,0,0,1,.8-2.51,2.92,2.92,0,0,1,.78,0C21,45.92,21.69,45.49,21.87,44.32ZM18,45.82c-.09.24-.34,1.12-.54,2-.45,1.81-.72,2.41-1.32,3a2.35,2.35,0,0,1-2,.64c-.9-.07-1.17-.18-1.27-.49a.72.72,0,0,1-.06-.29,1.06,1.06,0,0,1,.33.18,2,2,0,0,0,1.41.36c1.3-.1,1.79-.78,2.38-3.3.19-.75.38-1.55.43-1.76a.82.82,0,0,1,.39-.61c.28-.19.42-.24.42-.16s-.07.23-.16.47Zm-.29-.75c-1.93-.33-2.87-.14-3.37.65a1.29,1.29,0,0,0-.24.81A2,2,0,0,0,15,48.18l.32.27-.28,0c-.33.07-.56,0-.9-.49a2.29,2.29,0,0,1-.56-1.41,1.61,1.61,0,0,1,.52-1.26c.88-.84,2.33-1,4.63-.6a3.33,3.33,0,0,0,2.07,0c.37-.19.42-.12.13.19-.46.5-1.07.52-3.23.17Z"/><path id="Path_2394" data-name="Path 2394" d="M41.59,46.88A1.34,1.34,0,0,0,41,45.74a1.76,1.76,0,0,0-1.84-.4,1.69,1.69,0,0,0-1.1,1.27,1.35,1.35,0,0,0,.35.47l.34.34.15-.28a1.18,1.18,0,0,1,1-.77c.35,0,.35,0,.38.28,0,.62-.34,1.18-2,3A9.09,9.09,0,0,0,37.1,51a1,1,0,0,0,.28.46l.28.29h1.52a17,17,0,0,1,1.75.05c.18,0,.23,0,.3-.15a.59.59,0,0,0-.16-.8c-.25-.26-.29-.27-1.13-.31l-.87,0,.77-.83C41.23,48.19,41.59,47.6,41.59,46.88ZM38.7,50.79a9.18,9.18,0,0,1,2,0,.25.25,0,0,1,.18.2c0,.38,0,.38-1.73.37a14.48,14.48,0,0,1-1.74-.08c-.21-.12,0-.36.8-1.23a12.73,12.73,0,0,0,2.09-2.49c.49-1,.26-1.63-.55-1.63a1.23,1.23,0,0,0-1.12.62c-.2.33-.32.38-.32.1,0-.44.58-1,1.2-1.14a1.6,1.6,0,0,1,1.19.2,1,1,0,0,1,.44.94c0,.69-.58,1.49-2.72,3.76a1.43,1.43,0,0,0-.31.42,2.22,2.22,0,0,0,.63,0Z"/><path id="Path_2395" data-name="Path 2395" d="M45.57,45.62c-.44-.41-.57-.44-1.31-.29A3.63,3.63,0,0,0,42,48a6.52,6.52,0,0,0,0,2.49,2,2,0,0,0,.77,1,.89.89,0,0,0,.83.32,2,2,0,0,0,1.56-.77,4.59,4.59,0,0,0,1.15-3.34C46.27,46.58,46.13,46.14,45.57,45.62Zm-2.43,5.82a1.17,1.17,0,0,1-1-.75A2.15,2.15,0,0,1,42,49.52a4.6,4.6,0,0,1,.45-2.28,2.92,2.92,0,0,1,1.94-1.75c.52-.1.77-.05,1,.2.52.59.57,2.46.09,3.7s-1.49,2.16-2.34,2Z"/><path id="Path_2396" data-name="Path 2396" d="M44,45.88a4.2,4.2,0,0,0-1.47,3.54c0,1,.12,1.39.52,1.54.82.34,1.7-.6,2-2.17a7,7,0,0,0,0-2.42C45,45.76,44.55,45.58,44,45.88Zm.39,4.26c-.27.41-.81.76-1.1.68s-.28-.29-.28-1.14a4.76,4.76,0,0,1,1-3c.32-.35.77-.55.92-.41A4.49,4.49,0,0,1,45,47.46a4.55,4.55,0,0,1-.6,2.68Z"/><path id="Path_2397" data-name="Path 2397" d="M49.82,46a3.73,3.73,0,0,0-.6-.52A2.12,2.12,0,0,0,48,45.32a1.38,1.38,0,0,0-.94.51c-.12.21,0,.57.13.57s.14.07.17.17.08.15.1.14c.67-.35,1.41-.5,1.65-.3s.12.2.09.44a1.24,1.24,0,0,1-1.1,1c-.53.11-.7.2-.7.4s.55.68.84.73c.48.08.72.21.77.39a1.21,1.21,0,0,1-.46,1.34A2,2,0,0,1,47,50.62c-.16-.09-.28-.2-.28-.25s-.33-.07-.45.11-.17.33.12.7a1.86,1.86,0,0,0,1.25.74,2.06,2.06,0,0,0,2.5-1.49,1.67,1.67,0,0,0,.06-.44,1.36,1.36,0,0,0-.49-1.21l-.25-.25.36-.34a1.43,1.43,0,0,0,.22-2A1.31,1.31,0,0,0,49.82,46Zm0,1.22a1.68,1.68,0,0,1-.82.9l-.34.16.25.11a1.6,1.6,0,0,1-.13,2.9,2.45,2.45,0,0,1-2,0c-.26-.16-.36-.26-.36-.41,0-.32.19-.41.41-.18a1.31,1.31,0,0,0,.6.3c1.16.28,2-.42,1.81-1.49a1.15,1.15,0,0,0-1-.94c-.4-.08-.51-.14-.51-.27s.1-.17.41-.25c.9-.2,1.22-.5,1.27-1.2,0-.45,0-.49-.23-.7a.93.93,0,0,0-.75-.22,1.8,1.8,0,0,0-.82.17c-.35.17-.46.14-.33-.1.23-.44,1.33-.62,1.94-.32a1.89,1.89,0,0,1,.5.38,1.73,1.73,0,0,1,.17,1.16Z"/><path id="Path_2398" data-name="Path 2398" d="M54.45,45.62c-.45-.43-.63-.46-1.4-.25a3.75,3.75,0,0,0-2.26,3,5.48,5.48,0,0,0,.13,2.38,3.24,3.24,0,0,0,1,1,1.73,1.73,0,0,0,.64.12c1,0,1.88-.88,2.39-2.34a4.08,4.08,0,0,0,.23-1.73C55.16,46.53,55,46.17,54.45,45.62Zm-.29,4.14a2.91,2.91,0,0,1-1.33,1.5,1.19,1.19,0,0,1-1.66-.32,1,1,0,0,1-.15-.31,4.91,4.91,0,0,1,0-2.74,3.1,3.1,0,0,1,2.71-2.48.94.94,0,0,1,.35.2c.38.32.54.84.54,1.82a4.71,4.71,0,0,1-.49,2.33Z"/><path id="Path_2399" data-name="Path 2399" d="M52.92,45.87a2.47,2.47,0,0,0-1,1.23,4.78,4.78,0,0,0-.49,2.29c0,.94.11,1.36.45,1.53a.79.79,0,0,0,.85,0c.77-.4,1.25-1.51,1.36-3.1S53.76,45.43,52.92,45.87Zm.95.44a7.89,7.89,0,0,1,0,2.52c-.22,1-.79,1.86-1.37,2-.39.09-.45,0-.48-1-.06-1.69.52-3.11,1.44-3.59.31-.16.35-.16.45,0Z"/><path id="Path_2400" data-name="Path 2400" d="M33.56,47.23a1.41,1.41,0,0,0-1.23.8c-.12.27-.14.28-.58.28s-.45,0-.45-.16A1,1,0,0,0,31,47.7a.65.65,0,0,0-.58-.3,1.11,1.11,0,0,0-.48.09c-.12.06-.2,0-.38-.09s-.48-.22-.57-.07c-.13.41-.24.83-.33,1.25-.24,1-.3,1.19-.54,1.45a3,3,0,0,1-1.06.77c-.18,0-.07-.7.28-1.76a9,9,0,0,0,.29-1c0-.21-.59-.76-.82-.76s-.2.07-.26.35a6.56,6.56,0,0,1-1,2.7,1.72,1.72,0,0,1-.4.36c-.16.09-.17.07-.12-.27s.19-.84.35-1.43l.29-1.08-.3-.32c-.52-.52-.67-.44-1,.48-.15.51-.28.62-.79.62s-.85-.29-.75-1c0-.28,0-.34-.11-.38a.29.29,0,0,1-.19-.2c-.06-.21-.51-.21-.72,0a.6.6,0,0,1-.3.17,1.94,1.94,0,0,0-1.12.49c-.3.27-.34.36-.6,1.46a3.77,3.77,0,0,0-.21,1.42,2.65,2.65,0,0,0,1.29,1.18,1.75,1.75,0,0,0,1.42-.38c.23-.2.3-.35.45-1,.21-.87.13-.8.88-.74l.28,0-.05.49a1.07,1.07,0,0,0,.4,1.11,1.1,1.1,0,0,0,1.52.3l.1-.08.25-.21.29.25a1.29,1.29,0,0,0,1.53,0l.36-.21.2.21c.22.24.58.28.64.06s.09-.36.14-.64a4.7,4.7,0,0,1,.9-2.3l.2-.23.37.34a1.44,1.44,0,0,0,1.29.48c.48,0,.5,0,.9.37s.48.52.29.87-.28.34-.71.34c-.25,0-.33,0-.37-.16s-.1-.17-.17-.17a.2.2,0,0,1-.16-.16c-.13-.4-.7,0-.59.43a2.32,2.32,0,0,0,.87.94,1.7,1.7,0,0,0,2.22-.94,1.66,1.66,0,0,0,.11-.38c0-.42-.15-.68-.7-1.2-.37-.35-.46-.48-.42-.63.15-.45.51-.51.88-.13.21.22.24.23.36.12.34-.34.33-.58,0-1A1.15,1.15,0,0,0,33.56,47.23ZM34,48a.69.69,0,0,0-1-.12,1.12,1.12,0,0,0-.17.2c-.15.34-.11.43.49,1.07s.58.66.58.91a1.49,1.49,0,0,1-1.64,1.32,1.53,1.53,0,0,1-.68-.26c-.26-.21-.32-.5-.15-.67s.13,0,.25.16a.94.94,0,0,0,1.73-.36c0-.3-.05-.39-.46-.8a6.39,6.39,0,0,1-.56-.62c-.09-.12-.14-.13-.38,0a1.65,1.65,0,0,1-1.25-.14,1.3,1.3,0,0,1-.34-.43c-.15-.3-.2-.31-.56-.1a3.11,3.11,0,0,0-1,2c-.28,1.24-.29,1.25-.51,1.17s-.17-.11-.11-.39a.86.86,0,0,0,0-.35s-.15.08-.3.22a2.1,2.1,0,0,1-1.27.6.72.72,0,0,1-.71-.62c0-.28-.08-.27-.42.09-.53.56-1,.61-1.4.2-.29-.27-.32-.57-.13-1.37.07-.27.12-.52.13-.55a1,1,0,0,0-.42,0A2,2,0,0,1,22.66,49c-.1,0-.16.1-.32.8-.21.92-.35,1.14-.85,1.4a1.19,1.19,0,0,1-1.26-.06c-.56-.38-.58-.58-.26-1.9s.41-1.42.92-1.65a1.6,1.6,0,0,1,.61-.14c.26,0,.36,0,.4-.15s.2-.27.31-.24a1,1,0,0,1,.14.49c.09.83.5,1.27,1.2,1.27s.81-.12,1-.84.21-.66.42-.53.08.24-.18,1.3c-.45,1.8-.45,1.73-.2,2s.26.25.6.05c.53-.33.94-1.11,1.32-2.53a4.5,4.5,0,0,1,.26-.81s.13,0,.23.05.14.19-.46,2.07a3.53,3.53,0,0,0-.08.72c0,.5.14.74.4.74a2.41,2.41,0,0,0,1.26-.8,1.74,1.74,0,0,0,.55-1.1,5.54,5.54,0,0,1,.5-1.73.29.29,0,0,1,.2,0c.1.06.1.14,0,.41l-.1.34.32-.29c.3-.27.85-.46,1-.34a1.65,1.65,0,0,1,.18.41.63.63,0,0,0,.44.45c.44.17,1,.07,1.14-.18a1.31,1.31,0,0,1,1.39-.85c.36.06.52.19.52.44S34.12,48.21,34,48Z"/><path id="Path_2401" data-name="Path 2401" d="M21,48c-.32.19-.38.34-.62,1.36s-.25,1.2,0,1.45a.89.89,0,0,0,1.05.06c.26-.15.41-.56.68-1.72a1,1,0,0,0-.08-.88c-.19-.39-.22-.41-.51-.41A1.07,1.07,0,0,0,21,48Zm1,.76a13.86,13.86,0,0,1-.43,1.8l-.24.15c-.23.15-.54.18-.62.05a8.48,8.48,0,0,1,.49-2.15,1.11,1.11,0,0,1,.34-.22c.22-.09.27-.09.36,0a.67.67,0,0,1,.1.34Z"/></g></g></g></g></g></svg>