<svg xmlns="http://www.w3.org/2000/svg" viewBox="0 0 51.1 67.25"><g id="Layer_2" data-name="Layer 2"><g id="Layer_1-2" data-name="Layer 1"><g id="Group_2483" data-name="Group 2483"><path id="Path_2402" data-name="Path 2402" d="M21.57,13.31a2.83,2.83,0,0,0-3.95,0,3,3,0,0,0,0,4,2.81,2.81,0,0,0,3.95,0A3,3,0,0,0,21.57,13.31Z" fill="#2e9498"/><path id="Path_2403" data-name="Path 2403" d="M48.73,62.6h-.51V22.12A4.47,4.47,0,0,0,44,17.67V11.59a2.45,2.45,0,0,0-2.44-2.43H8.37a2.45,2.45,0,0,0-2.44,2.43v6.19a4.48,4.48,0,0,0-3.45,4.34V62.6h-.1a2.33,2.33,0,1,0-.1,4.65H48.73a2.33,2.33,0,1,0,.09-4.65ZM36.91,11.86h1V18h3.71v.78H36.91Zm-5.7,0h4.5v.78h-3.5v2.08h3.11v.79H32.21V18h3.5v.78h-4.5Zm-7.43,0h6.57v.78H27.58v6.11h-1V12.64h-2.8ZM22.5,45.19h6.71v7.08H22.5Zm-.1-14.57V23.53h6.71v7.09Zm.1,10.93V34.46h6.71v7.09ZM8.76,11.86h1v2.83h3.91V11.86h1v6.89h-1V15.48H9.76v3.27h-1ZM8.17,23.53h6.71v7.09H8.17ZM15,34.46v7.09H8.27V34.46ZM8.27,45.19H15v7.08H8.27ZM15.08,62.6H8.37V55.51h6.71ZM19.6,18.9a3.58,3.58,0,0,1-2.68-6.13,4,4,0,0,1,5.35,0,3.57,3.57,0,0,1-2.67,6.12ZM31.35,62.6H20V55.51H31.35Zm3.86-39.07h6.71v7.09H35.21ZM42,34.46v7.09H35.31V34.46ZM35.31,45.19H42v7.08H35.31Zm6.81,17.4H35.41V55.51h6.71Z" fill="#2e9498"/><path id="Path_2404" data-name="Path 2404" d="M22.09,7.63l2.63-1.17L27.18,8,26.87,5.1l2.18-1.86-2.82-.59L25.13,0,23.7,2.48l-2.87.24,1.93,2.12Z" fill="#2e9498"/><path id="Path_2405" data-name="Path 2405" d="M32.46,7.63l2.62-1.17L37.54,8l-.3-2.85,2.18-1.86-2.82-.6L35.5,0,34.06,2.48l-2.87.24,1.93,2.12Z" fill="#2e9498"/><path id="Path_2406" data-name="Path 2406" d="M11.83,7.63l2.62-1.17L16.91,8,16.6,5.1l2.19-1.86L16,2.65,14.87,0,13.43,2.48l-2.87.24,1.93,2.12Z" fill="#2e9498"/></g></g></g></svg>