<svg xmlns="http://www.w3.org/2000/svg" xmlns:xlink="http://www.w3.org/1999/xlink"
    viewBox="0 0 56.16 46.29">
    <defs>
        <linearGradient id="linear-gradient" x1="10.9" y1="7.21" x2="22.77" y2="22.72"
            gradientUnits="userSpaceOnUse">
            <stop offset="0.18" stop-color="#ffead9" />
            <stop offset="0.41" stop-color="#fabc80" />
        </linearGradient>
        <linearGradient id="linear-gradient-2" x1="19.11" y1="14.25" x2="36.09" y2="36.46"
            xlink:href="#linear-gradient" />
        <linearGradient id="linear-gradient-3" x1="25.37" y1="24.66" x2="43.26" y2="48.04"
            xlink:href="#linear-gradient" />
    </defs>
    <g id="Layer_2" data-name="Layer 2">
        <g id="Layer_1-2" data-name="Layer 1">
            <g id="Layer_2-2" data-name="Layer 2">
                <g id="Layer_1-2-2" data-name="Layer 1-2">
                    <path
                        d="M11.55.45A1.49,1.49,0,0,0,12.18,0c1,.17,2.07.34,3.11.54a2.52,2.52,0,0,1,.84.41l3.69,2.21a7.17,7.17,0,0,1,.91.74c1.94,1.72,4,3.31,6,5a.72.72,0,0,0,.45.24l4,.36c.29,0,.58-.11.87-.05.72.1,1.45.16,2.16.29a1.73,1.73,0,0,1,.37.94,1,1,0,0,0,.3.45c.66,0,1.32,0,2,0,.26,0,.23.35.27.55s.15.29.25.42a.52.52,0,0,0,.16.55l.31.07-.13.16.37.37c0,.08,0,.16,0,.23h-.28c.1.13.29.22.28.41a.7.7,0,0,1,.54.22,2.54,2.54,0,0,1,.39,0,1.79,1.79,0,0,1,.28.27l-.54.05.19.12.19-.07L39,14.7l.23-.07c0,.18.07.36.11.55l.18-.16a2.45,2.45,0,0,0,0,.27h.33l-.12-.12H40v.19a2.33,2.33,0,0,0,.56.61,2.47,2.47,0,0,0,.53.22,6,6,0,0,0,.55.58l-.42-.17-.09-.13a3.38,3.38,0,0,0,.1.7c.06.25.45.18.49.44s.1.5-.12.61l-.06.39c-.08-.18-.18-.36-.27-.53l-.17.21.08.13a1.89,1.89,0,0,0,0,.23.28.28,0,0,1,.33.39,2.71,2.71,0,0,0,.38.63l-.33-.19.19.21a5.39,5.39,0,0,0,.4.54l.1,0,.23.15a5.05,5.05,0,0,1,.22,1.08,1.47,1.47,0,0,1,.54,1l.13-.05c.14.22.26.52.55.53s.47-.23.75-.16c0,.1,0,.21,0,.32.09-.11.18-.24.28-.34l.25.12a1.43,1.43,0,0,0-.62.84,1.7,1.7,0,0,1,.5-.05,3.21,3.21,0,0,1,.31.19c0,.2,0,.41.11.57.79,1,1.59,2.07,2.39,3.1a.34.34,0,0,0,.27.17l6.66.9.21-.25c.35.6.71,1.2,1.07,1.79.06.12.16.24.1.38q-.86,2.81-1.73,5.59c-2.26.81-4.52,1.6-6.79,2.4a12.57,12.57,0,0,1-1.35.45l-6.82,1a2.8,2.8,0,0,0-1,.22l-2,1a.86.86,0,0,0-.34.28L34.81,43.1c-.27.33-.29.78-.51,1.13a1.54,1.54,0,0,1-1.23.44c-.23-.29-.41-.62-.67-.89-.44,0-.87.16-1.31.1L29,43.66c-.33,0-.55-.34-.89-.33h-1a6.3,6.3,0,0,1-.75,0c-.28,0-.56.06-.84,0a.3.3,0,0,1-.4.1l-.24.2-.07-.15c-.18,0-.39,0-.52-.12a.88.88,0,0,0-.74-.36,1.92,1.92,0,0,0-.64.5,2.75,2.75,0,0,1,.26.22l-.28.12-.09.34a1.17,1.17,0,0,1,0,.49.59.59,0,0,0,.27.33,1.11,1.11,0,0,0-.09.4l-.23-.06a2.43,2.43,0,0,1-.13.38,1.57,1.57,0,0,1-.33.19c0,.18-.2.24-.35.3V46a.66.66,0,0,1-.16-.51c0-.27-.24-.44-.45-.57,0-.14,0-.27,0-.41s-.16-.08-.23-.12-.14-.27-.22-.4c0,.16,0,.33,0,.5a6,6,0,0,1-.18-1.2,9,9,0,0,0-1.35-1.12c-.37-.23-.46-.69-.71-1s-.21-.77-.51-1l-.18,0a1.69,1.69,0,0,1-.17-.36,1.83,1.83,0,0,1,.09-.39l-.18-.05-.12-.24c0-.11.07-.23.11-.34l-.28-.16a2.26,2.26,0,0,1-.11-.37c-.06-.11-.15-.2-.2-.31s0-.22,0-.33a2.75,2.75,0,0,0-.4-.26c0-.17,0-.37-.09-.5s-.21-.08-.33-.1l-.27-.34s0-.11,0-.15l-.38-.26c-.33-.15-.54-.47-.86-.64-.19,0-.41.07-.57-.06a2.39,2.39,0,0,1-1-1.27l-.19-.05.09-.15a.54.54,0,0,1-.31-.28c-.15-.09-.18-.28-.28-.41s-.17-.52-.38-.73c.15-.12.33-.31.18-.51a.62.62,0,0,1-.09-.75l-.12.1a2.09,2.09,0,0,1-.39-.92l.21.08.07-.22c-.07-.37.18-.67.32-1l-.22.2a1.88,1.88,0,0,0,0-.58,3.07,3.07,0,0,0-.24-.48l.09-.12a.82.82,0,0,1-.45-.53c.11.08.17.29.31.28a.92.92,0,0,0-.2-.31l-.29-.17c0-.11,0-.21.07-.32-.38-.3-.38-.82-.54-1.24L10.6,26c-.1-.24-.18-.49-.29-.73a4.68,4.68,0,0,0-.86-.73c-.13-.11-.3-.17-.44-.27A1.36,1.36,0,0,1,9,23.93a2,2,0,0,1,0,.24c-.28-.06-.42-.34-.68-.43-.12.13-.26.09-.4,0s-.18-.25-.28-.37l.15-.1a6,6,0,0,1-.65-1,1.24,1.24,0,0,0-.22-.18c.09-.05.25,0,.31-.1a1.64,1.64,0,0,0,0-.73c0-.21-.19-.33-.31-.48a1.16,1.16,0,0,1-.2-.47A4.93,4.93,0,0,0,6,19.42l-.1.12a.88.88,0,0,1-.3-.39c0-.17.17-.34.08-.51s-.3-.13-.44-.21S5,18,4.92,17.86a5.48,5.48,0,0,0-.69-1.23c-.24-.2-.27-.54-.5-.74s-.49-.45-.45-.79c-.23-.36-.66-.58-.77-1a2,2,0,0,0-.43-.8,1.22,1.22,0,0,0-.51-.61l.15-.12a3.71,3.71,0,0,1-.46-.19,1.3,1.3,0,0,1-.95,0l-.07.06-.1.27L0,12.33l.2-.2c.11-.34.28-.66.38-1s-.06-.41,0-.6c.15-.42.12-.87.24-1.29C.89,9,1,8.81,1,8.6l2.74.47c.21.07.36-.12.51-.23s.56-.44.8-.7.39-.66.6-1S6,7,6.21,6.94c.51-.12,1-.18,1.54-.35.19-.31.26-.69.45-1a9.68,9.68,0,0,1,.88-.52L7.75,3.51C7.29,3,6.82,2.49,6.35,2c1.73-.53,3.47-1,5.2-1.54Z"
                        fill="#fabc80" />
                    <path d="M23.41,6.15S10.86,9.08,5.9,17.78l1.95,2.84s10-12.81,17.89-10.85Z"
                        fill="url(#linear-gradient)" />
                    <path d="M36.5,13.89S19.08,17.53,12.2,28.32l2.7,3.51S28.8,16,39.73,18.38Z"
                        fill="url(#linear-gradient-2)" />
                    <path d="M43.58,24.53S25.39,28.23,18.2,39.21L21,42.79S35.55,26.63,47,29.1Z"
                        fill="url(#linear-gradient-3)" />
                </g>
            </g>
        </g>
    </g>
</svg>