<svg xmlns="http://www.w3.org/2000/svg" viewBox="0 0 101.38 123.46"><g id="Layer_2" data-name="Layer 2"><g id="_428" data-name="428"><g id="_933522224" data-name=" 933522224"><path id="Path_9" data-name="Path 9" d="M79.27,47.63V80.18L50.69,97.58,22.11,80.18V47.63l-1.86-1.2L0,35.05V92.6L25.35,108l25.34,15.43L76,108,101.38,92.6V35.05L81.13,46.43Z" fill="#fabc80"/><path id="Path_10" data-name="Path 10" d="M25.57,41.18l25.12-15.3,25.12,15.3,1.5-1,.19-.12L97.81,28.69,76,15.43,50.69,0,25.34,15.43,3.58,28.69,23.9,40.1l.18.12Z" fill="#2e9498"/><path id="Path_11" data-name="Path 11" d="M50.69,41.17a8.77,8.77,0,0,1,4,16.51v15.5a4,4,0,0,1-4,4h0a4,4,0,0,1-4-4V57.68a8.77,8.77,0,0,1,4-16.51Z" fill="#fabc80"/></g></g></g></svg>