<svg xmlns="http://www.w3.org/2000/svg" viewBox="0 0 72.86 72.83"><g id="Layer_2" data-name="Layer 2"><g id="Layer_1-2" data-name="Layer 1"><g id="Group_1748" data-name="Group 1748"><path id="Path_2238" data-name="Path 2238" d="M61.49,13.94v42.6a8.7,8.7,0,0,1-8.73,8.65h-44A8.69,8.69,0,0,1,0,56.54V13.94A8.69,8.69,0,0,1,8.73,5.29h44A8.7,8.7,0,0,1,61.49,13.94Z" fill="#fff"/><path id="Path_2239" data-name="Path 2239" d="M61.49,13.94V26.78H0V13.94A8.69,8.69,0,0,1,8.5,5.29H53A8.69,8.69,0,0,1,61.49,13.94Z" fill="#2e9498"/><g id="Group_1737" data-name="Group 1737"><g id="Group_1735" data-name="Group 1735"><circle id="Ellipse_3" data-name="Ellipse 3" cx="13.62" cy="8.96" r="2.76" fill="#fdfaed"/></g><g id="Group_1736" data-name="Group 1736"><path id="Path_2240" data-name="Path 2240" d="M13.62,11a2,2,0,0,1-2-2h0V2a2,2,0,0,1,4.06,0V9A2,2,0,0,1,13.62,11Z" fill="#fabc80"/></g></g><g id="Group_1740" data-name="Group 1740"><g id="Group_1738" data-name="Group 1738"><circle id="Ellipse_4" data-name="Ellipse 4" cx="30.83" cy="8.96" r="2.76" fill="#fdfaed"/></g><g id="Group_1739" data-name="Group 1739"><path id="Path_2241" data-name="Path 2241" d="M30.83,11a2,2,0,0,1-2-2h0V2a2,2,0,0,1,4.06,0h0V9A2,2,0,0,1,30.83,11Z" fill="#fabc80"/></g></g><g id="Group_1743" data-name="Group 1743"><g id="Group_1741" data-name="Group 1741"><circle id="Ellipse_5" data-name="Ellipse 5" cx="48.04" cy="8.96" r="2.76" fill="#fdfaed"/></g><g id="Group_1742" data-name="Group 1742"><path id="Path_2242" data-name="Path 2242" d="M48.05,11a2,2,0,0,1-2-2h0V2a2,2,0,0,1,4.06,0V9a2,2,0,0,1-2,2Z" fill="#fabc80"/></g></g><g id="Group_1744" data-name="Group 1744"><path id="Rectangle_573" data-name="Rectangle 573" d="M22.1,31.12H26A2.9,2.9,0,0,1,28.9,34h0a2.9,2.9,0,0,1-2.9,2.9H22.1A2.9,2.9,0,0,1,19.2,34h0A2.9,2.9,0,0,1,22.1,31.12Z" fill="#fabc80"/><path id="Rectangle_574" data-name="Rectangle 574" d="M35.49,31.12h3.9a2.9,2.9,0,0,1,2.9,2.9h0a2.9,2.9,0,0,1-2.9,2.9h-3.9a2.9,2.9,0,0,1-2.9-2.9h0A2.9,2.9,0,0,1,35.49,31.12Z" fill="#fabc80"/><path id="Rectangle_575" data-name="Rectangle 575" d="M48.87,31.12h3.9a2.9,2.9,0,0,1,2.9,2.9h0a2.9,2.9,0,0,1-2.9,2.9h-3.9A2.9,2.9,0,0,1,46,34h0A2.9,2.9,0,0,1,48.87,31.12Z" fill="#fabc80"/><path id="Rectangle_576" data-name="Rectangle 576" d="M8.71,39.05h3.9a2.9,2.9,0,0,1,2.9,2.9h0a2.9,2.9,0,0,1-2.9,2.9H8.71A2.9,2.9,0,0,1,5.81,42h0A2.9,2.9,0,0,1,8.71,39.05Z" fill="#fabc80"/><path id="Rectangle_577" data-name="Rectangle 577" d="M22.1,39.05H26A2.9,2.9,0,0,1,28.9,42h0a2.9,2.9,0,0,1-2.9,2.9H22.1A2.9,2.9,0,0,1,19.2,42h0A2.9,2.9,0,0,1,22.1,39.05Z" fill="#fabc80"/><path id="Rectangle_578" data-name="Rectangle 578" d="M35.49,39.05h3.9a2.9,2.9,0,0,1,2.9,2.9h0a2.9,2.9,0,0,1-2.9,2.9h-3.9a2.9,2.9,0,0,1-2.9-2.9h0A2.9,2.9,0,0,1,35.49,39.05Z" fill="#fabc80"/><path id="Rectangle_579" data-name="Rectangle 579" d="M48.87,39.05h3.9a2.9,2.9,0,0,1,2.9,2.9h0a2.9,2.9,0,0,1-2.9,2.9h-3.9A2.9,2.9,0,0,1,46,42h0A2.9,2.9,0,0,1,48.87,39.05Z" fill="#fabc80"/><path id="Rectangle_580" data-name="Rectangle 580" d="M8.71,47h3.9a2.9,2.9,0,0,1,2.9,2.9h0a2.9,2.9,0,0,1-2.9,2.9H8.71a2.9,2.9,0,0,1-2.9-2.9h0A2.9,2.9,0,0,1,8.71,47Z" fill="#fabc80"/><path id="Rectangle_581" data-name="Rectangle 581" d="M22.1,47H26a2.9,2.9,0,0,1,2.9,2.9h0a2.9,2.9,0,0,1-2.9,2.9H22.1a2.9,2.9,0,0,1-2.9-2.9h0A2.9,2.9,0,0,1,22.1,47Z" fill="#fabc80"/><path id="Rectangle_582" data-name="Rectangle 582" d="M35.49,47h3.9a2.9,2.9,0,0,1,2.9,2.9h0a2.9,2.9,0,0,1-2.9,2.9h-3.9a2.9,2.9,0,0,1-2.9-2.9h0A2.9,2.9,0,0,1,35.49,47Z" fill="#fabc80"/><path id="Rectangle_583" data-name="Rectangle 583" d="M48.87,47h3.9a2.9,2.9,0,0,1,2.9,2.9h0a2.9,2.9,0,0,1-2.9,2.9h-3.9a2.9,2.9,0,0,1-2.9-2.9h0A2.9,2.9,0,0,1,48.87,47Z" fill="#fabc80"/><path id="Rectangle_584" data-name="Rectangle 584" d="M8.71,54.91h3.9a2.9,2.9,0,0,1,2.9,2.9h0a2.9,2.9,0,0,1-2.9,2.9H8.71a2.9,2.9,0,0,1-2.9-2.9h0A2.9,2.9,0,0,1,8.71,54.91Z" fill="#fabc80"/><path id="Rectangle_585" data-name="Rectangle 585" d="M22.1,54.91H26a2.9,2.9,0,0,1,2.9,2.9h0a2.9,2.9,0,0,1-2.9,2.9H22.1a2.9,2.9,0,0,1-2.9-2.9h0A2.9,2.9,0,0,1,22.1,54.91Z" fill="#fabc80"/></g><g id="Group_1747" data-name="Group 1747"><circle id="Ellipse_6" data-name="Ellipse 6" cx="56.91" cy="56.89" r="15.1" fill="#fff"/><g id="Group_1745" data-name="Group 1745"><path id="Path_2243" data-name="Path 2243" d="M56.91,72.83a15.94,15.94,0,1,1,16-15.94h0A16,16,0,0,1,56.91,72.83Zm0-30.2A14.26,14.26,0,1,0,71.17,56.89,14.25,14.25,0,0,0,56.91,42.63Z" fill="#2e9498"/></g><g id="Group_1746" data-name="Group 1746"><path id="Path_2244" data-name="Path 2244" d="M56.91,57.74H48.78a.85.85,0,0,1,0-1.7h7.29V45.17a.83.83,0,0,1,.87-.81.85.85,0,0,1,.82.81V56.89A.86.86,0,0,1,56.91,57.74Z" fill="#2e9498"/></g></g></g></g></g></svg>