<svg xmlns="http://www.w3.org/2000/svg" viewBox="0 0 65.66 65.66"><g id="Layer_2" data-name="Layer 2"><g id="Layer_1-2" data-name="Layer 1"><g id="Group_1750" data-name="Group 1750"><g id="Group_1749" data-name="Group 1749"><path id="Path_2245" data-name="Path 2245" d="M32.83,0A32.83,32.83,0,1,0,65.66,32.83h0A32.87,32.87,0,0,0,32.83,0Zm0,58.36A25.53,25.53,0,1,1,58.36,32.83,25.53,25.53,0,0,1,32.83,58.36Z" fill="#2e9498"/><path id="Path_2246" data-name="Path 2246" d="M33.56,16.05a4.09,4.09,0,0,0-4.09,4.09c0,.08,0,.16,0,.24l.95,15.32a3.14,3.14,0,0,0,6.26,0l1-15.33a4.08,4.08,0,0,0-3.84-4.31Z" fill="#fabc80"/><circle id="Ellipse_7" data-name="Ellipse 7" cx="33.56" cy="48.15" r="2.92" fill="#fabc80"/></g></g></g></g></svg>