<svg xmlns="http://www.w3.org/2000/svg" viewBox="0 0 76.44 61.82"><g id="Layer_2" data-name="Layer 2"><g id="Layer_1-2" data-name="Layer 1"><g id="Group_1734" data-name="Group 1734"><g id="Group_1725" data-name="Group 1725"><g id="Group_1723" data-name="Group 1723"><circle id="Ellipse_1" data-name="Ellipse 1" cx="11.85" cy="18.81" r="4.59" fill="#fabc80"/></g><g id="Group_1724" data-name="Group 1724"><path id="Path_1604" data-name="Path 1604" d="M32.38,58.06l-3-13.48a2.76,2.76,0,0,0-.33-.77,3.09,3.09,0,0,0-2.75-1.68H17V30.4a4.24,4.24,0,0,0-4.24-4.24h-.6A4.23,4.23,0,0,0,8,30.4H8V43.29a5.47,5.47,0,0,0,5.48,5.47H24.77l2.82,10.61a2.22,2.22,0,0,0,2.51,1.87l.22-.05.51-.12a2.32,2.32,0,0,0,1.59-2.88S32.39,58.1,32.38,58.06Z" fill="#fabc80"/></g></g><g id="Group_1726" data-name="Group 1726"><path id="Path_1605" data-name="Path 1605" d="M18.55,55.52c-5.83,0-10.4-1.7-13.61-5.06C-1.35,43.86.13,33.39.2,32.94a2,2,0,1,1,3.88.58h0c0,.09-1.26,9,3.72,14.24,2.93,3.07,7.55,4.3,13.75,3.69A2,2,0,0,1,22,55.34h0C20.81,55.46,19.68,55.52,18.55,55.52Z" fill="#2e9498"/></g><g id="Group_1729" data-name="Group 1729"><g id="Group_1727" data-name="Group 1727"><circle id="Ellipse_2" data-name="Ellipse 2" cx="64.59" cy="19.37" r="4.59" fill="#fabc80"/></g><g id="Group_1728" data-name="Group 1728"><path id="Path_1606" data-name="Path 1606" d="M44.06,58.62l3-13.48a2.76,2.76,0,0,1,.33-.77,3.09,3.09,0,0,1,2.75-1.68h9.24V31a4.24,4.24,0,0,1,4.24-4.24h.6A4.23,4.23,0,0,1,68.48,31h0V43.84A5.48,5.48,0,0,1,63,49.32H51.67L48.84,59.93a2.2,2.2,0,0,1-2.51,1.86l-.21,0-.51-.12A2.33,2.33,0,0,1,44,58.74.56.56,0,0,0,44.06,58.62Z" fill="#fabc80"/></g></g><g id="Group_1730" data-name="Group 1730"><path id="Path_1607" data-name="Path 1607" d="M57.89,56.08c-1.13,0-2.26-.06-3.38-.17A2,2,0,0,1,54.9,52c6.19.62,10.82-.62,13.75-3.69,5-5.2,3.73-14.15,3.72-14.24a2,2,0,0,1,3.88-.58c.06.44,1.54,10.91-4.75,17.51C68.29,54.38,63.72,56.08,57.89,56.08Z" fill="#2e9498"/></g><g id="Group_1732" data-name="Group 1732"><g id="Group_1731" data-name="Group 1731"><path id="Path_1608" data-name="Path 1608" d="M37.94,0a12.22,12.22,0,0,0-10.3,18.81A8,8,0,0,1,24,21.33s1.71,1.27,7.57,1.31A12.23,12.23,0,1,0,37.94,0ZM30.26,14.09a2.21,2.21,0,1,1,2.21-2.21h0a2.21,2.21,0,0,1-2.21,2.21Zm7.81.35a2.21,2.21,0,1,1,2.21-2.21h0a2.21,2.21,0,0,1-2.21,2.21Zm7.77,0a2.21,2.21,0,1,1,2.21-2.21h0a2.21,2.21,0,0,1-2.21,2.21Z" fill="#2e9498"/></g></g><g id="Group_1733" data-name="Group 1733"><path id="Path_1609" data-name="Path 1609" d="M52.7,31.83H24.07a3.19,3.19,0,0,0,0,6.37h11.1V59.85a1.41,1.41,0,0,0,1.41,1.41h3.69a1.41,1.41,0,0,0,1.41-1.41h0V38.2h11a3.19,3.19,0,0,0,.1-6.37H52.7Z" fill="#2e9498"/></g></g></g></g></svg>